<?xml version="1.0" standalone="no"?>
<!DOCTYPE svg PUBLIC "-//W3C//DTD SVG 20010904//EN"
 "http://www.w3.org/TR/2001/REC-SVG-20010904/DTD/svg10.dtd">
<svg version="1.0" xmlns="http://www.w3.org/2000/svg"
 width="500.000000pt" height="500.000000pt" viewBox="0 0 500.000000 500.000000"
 preserveAspectRatio="xMidYMid meet">
<metadata>
Created by potrace 1.14, written by Peter Selinger 2001-2017
</metadata>
<g transform="translate(0.000000,500.000000) scale(0.100000,-0.100000)"
fill="#000000" stroke="none">
<path d="M2270 4830 c-178 -14 -285 -36 -505 -107 -247 -79 -445 -183 -685
-361 -134 -99 -342 -305 -447 -443 -346 -455 -513 -1015 -474 -1587 22 -323
94 -593 235 -877 258 -520 662 -900 1201 -1131 170 -73 338 -120 555 -155 173
-28 535 -31 695 -5 673 109 1248 475 1617 1031 259 391 388 820 388 1297 0
655 -243 1228 -716 1688 -173 168 -319 274 -535 388 -246 130 -401 184 -698
242 -120 23 -454 34 -631 20z m180 -395 c-12 -19 -20 -46 -18 -61 2 -16 -2
-29 -9 -31 -9 -3 -13 6 -13 25 0 16 -11 46 -25 66 -29 43 -30 46 -11 46 7 0
20 -10 29 -22 l15 -23 23 29 c30 38 37 16 9 -29z m-255 25 c3 -6 -5 -14 -19
-20 -23 -8 -25 -13 -19 -42 10 -48 9 -73 -2 -76 -5 -2 -15 21 -20 50 -9 43
-14 54 -33 56 -48 7 -14 25 80 41 4 0 10 -4 13 -9z m553 -57 c13 -40 18 -71
13 -76 -5 -5 -14 -1 -20 12 -14 26 -57 28 -83 4 -16 -14 -18 -14 -18 0 0 22
62 127 76 127 6 0 21 -30 32 -67z m256 -41 c5 -29 13 -52 17 -52 4 0 22 18 39
40 35 45 66 54 56 18 -4 -13 -12 -44 -18 -70 -14 -59 -39 -67 -32 -10 l6 37
-27 -28 c-29 -32 -55 -30 -55 5 0 13 -4 29 -9 36 -6 10 -11 6 -19 -17 -6 -17
-16 -31 -21 -31 -16 0 -14 8 24 118 10 28 30 4 39 -46z m-1100 -28 c55 -68 62
-90 17 -63 -25 16 -67 4 -74 -21 -3 -11 -10 -20 -15 -20 -7 0 -9 22 -6 58 7
76 13 102 23 102 5 0 29 -25 55 -56z m-284 -69 c0 -5 -10 -10 -22 -10 -13 0
-24 -7 -26 -17 -3 -15 4 -18 37 -18 27 0 43 -5 50 -17 18 -34 -30 -81 -69 -68
-33 11 -24 33 13 31 22 -1 32 3 32 14 0 10 -9 14 -29 13 -58 -4 -86 36 -50 72
17 17 65 17 64 0z m1953 -93 c17 -15 23 -42 9 -42 -4 0 -16 9 -25 21 -23 27
-57 21 -76 -13 -14 -24 -14 -28 3 -47 11 -12 27 -21 38 -21 10 0 18 -4 18 -10
0 -5 -9 -10 -21 -10 -57 0 -89 51 -63 101 25 49 75 58 117 21z m221 -163 c21
-24 24 -34 16 -50 -11 -19 -22 -23 -49 -19 -11 1 -12 -8 -7 -39 5 -33 3 -39
-9 -35 -19 8 -27 36 -19 68 5 21 3 25 -9 20 -9 -3 -18 -12 -21 -20 -7 -17 -26
-19 -26 -1 0 14 78 107 90 107 4 0 20 -14 34 -31z m236 -233 c-7 -7 -15 -3
-26 12 -8 12 -22 22 -30 22 -18 0 -18 -34 1 -50 8 -7 12 -17 9 -22 -3 -5 -17
1 -30 13 -18 17 -27 20 -35 12 -9 -9 -6 -19 10 -40 33 -41 4 -44 -32 -3 l-30
34 54 47 54 48 33 -32 c21 -21 29 -34 22 -41z m-2260 49 c52 -8 127 -15 166
-15 l71 0 7 -61 c3 -34 6 -124 6 -200 0 -113 -3 -139 -14 -139 -9 0 -17 16
-21 43 -18 111 -83 196 -194 250 -62 30 -72 31 -181 32 -107 0 -119 -2 -175
-29 -76 -38 -149 -110 -183 -184 -24 -50 -27 -69 -27 -162 0 -100 2 -108 33
-166 40 -74 48 -82 232 -228 131 -104 146 -114 158 -98 7 9 36 52 63 95 160
247 447 434 774 502 234 49 575 22 838 -66 90 -30 242 -100 265 -123 12 -11
72 -382 72 -444 0 -39 -22 -19 -41 36 -70 205 -249 376 -485 461 -142 52 -227
64 -403 58 -176 -5 -277 -28 -406 -93 -196 -99 -367 -276 -460 -477 -52 -113
-54 -105 27 -167 285 -218 410 -423 425 -696 9 -164 -28 -297 -122 -431 -26
-36 -44 -71 -41 -78 2 -6 28 -28 58 -47 191 -127 370 -178 627 -178 287 0 493
67 693 226 239 191 368 464 396 838 4 65 11 101 20 104 16 5 17 -212 1 -324
-54 -393 -256 -686 -573 -835 -278 -130 -705 -145 -1036 -38 -65 21 -242 103
-291 135 -25 16 -28 15 -110 -25 -135 -66 -218 -84 -394 -85 -123 0 -165 4
-232 21 -284 75 -463 263 -512 537 -25 139 0 299 69 437 26 53 128 189 141
189 23 0 18 -33 -11 -75 -138 -200 -168 -474 -74 -670 62 -131 188 -240 337
-293 96 -34 249 -41 362 -18 83 17 245 89 245 109 0 6 -20 32 -44 57 -143 146
-248 353 -291 569 -23 116 -23 337 1 458 9 51 16 94 13 96 -111 81 -393 317
-415 349 -72 100 -94 170 -94 298 0 165 50 288 161 402 133 136 316 182 569
143z m2420 -247 c0 -14 -56 -102 -76 -119 -14 -11 -15 -8 -9 22 5 27 2 38 -13
52 -11 10 -25 17 -32 15 -7 -2 -14 2 -17 9 -2 7 13 15 39 21 61 14 108 14 108
0z m150 -248 c24 -51 21 -79 -4 -44 -14 18 -15 18 -60 -4 -51 -24 -66 -27 -66
-12 0 5 23 21 50 35 45 23 50 28 44 50 -11 43 12 27 36 -25z m95 -255 c48 -47
19 -115 -50 -115 -82 0 -102 89 -30 128 31 18 54 14 80 -13z m91 -322 c6 -31
3 -39 -16 -55 -20 -16 -25 -17 -45 -4 -25 16 -45 8 -49 -20 -4 -25 -20 -24
-24 2 -2 11 6 28 18 39 27 24 25 35 -5 35 -31 0 -33 18 -2 25 102 22 115 20
123 -22z m-3354 -83 c53 -15 88 -61 88 -116 0 -36 -6 -51 -34 -81 -31 -35 -38
-37 -89 -37 -84 2 -127 43 -127 121 0 59 50 110 120 122 3 1 22 -4 42 -9z"/>
<path d="M2696 4414 c-7 -18 0 -34 15 -34 5 0 9 11 9 25 0 28 -15 34 -24 9z"/>
<path d="M1856 4324 c-9 -23 -8 -24 14 -24 23 0 26 13 6 29 -11 9 -15 8 -20
-5z"/>
<path d="M3746 3994 c-7 -19 1 -34 19 -34 21 0 28 19 15 35 -16 19 -26 19 -34
-1z"/>
<path d="M1760 2331 c0 -278 67 -503 208 -694 l35 -49 28 54 c99 196 77 422
-60 622 -36 51 -179 186 -198 186 -10 0 -13 -27 -13 -119z"/>
<path d="M4113 3548 c2 -7 10 -13 17 -13 7 0 15 6 18 13 2 7 -5 12 -18 12 -13
0 -20 -5 -17 -12z"/>
<path d="M4358 3059 c-27 -15 -23 -57 7 -71 19 -9 29 -8 50 6 30 20 32 37 7
59 -21 19 -39 21 -64 6z"/>
<path d="M4460 2746 c0 -17 24 -38 33 -29 15 15 6 43 -13 43 -11 0 -20 -6 -20
-14z"/>
</g>
</svg>
