<svg xmlns="http://www.w3.org/2000/svg" xmlns:xlink="http://www.w3.org/1999/xlink" width="3000" height="15000" viewBox="0 0 3000 15000">
  <defs>
    <style>
      .cls-1 {
        opacity: 0.05;
        filter: url(#filter);
      }

      .cls-2 {
        fill: #fff;
        fill-rule: evenodd;
      }
    </style>
    <filter id="filter" filterUnits="userSpaceOnUse">
      <feFlood result="flood" flood-color="#0bd1ee"/>
      <feComposite result="composite" operator="in" in2="SourceGraphic"/>
      <feBlend result="blend" in2="SourceGraphic"/>
    </filter>
  </defs>
  <g class="cls-1">
    <path id="Rounded_Rectangle_1_copy" data-name="Rounded Rectangle 1 copy" class="cls-2" d="M2097.27,767.331L3220.23,73.525,3344.8,275.147,2221.84,968.953Z"/>
    <path id="Rounded_Rectangle_1_copy_2" data-name="Rounded Rectangle 1 copy 2" class="cls-2" d="M2307.34,936.11l1122.96-693.8,74.63,120.8L2467.05,1004.35a99.989,99.989,0,0,1-137.63-32.509Z"/>
    <path id="Rounded_Rectangle_1" data-name="Rounded Rectangle 1" class="cls-2" d="M2032.14,612.445L3132.98-67.7l74.63,120.8L2021.7,785.809l-22.07-35.731A99.993,99.993,0,0,1,2032.14,612.445Z"/>
    <path id="Rounded_Rectangle_1_copy_3" data-name="Rounded Rectangle 1 copy 3" class="cls-2" d="M2258.27,2045.33l1122.96-693.8,124.57,201.62-1122.96,693.8Z"/>
    <path id="Rounded_Rectangle_1_copy_3-2" data-name="Rounded Rectangle 1 copy 3" class="cls-2" d="M2468.34,2214.11L3591.3,1520.3l74.63,120.81L2628.05,2282.35a99.988,99.988,0,0,1-137.63-32.51Z"/>
    <path id="Rounded_Rectangle_1_copy_3-3" data-name="Rounded Rectangle 1 copy 3" class="cls-2" d="M2193.14,1890.44L3293.98,1210.3l74.63,120.81L2182.7,2063.81l-22.07-35.73A100,100,0,0,1,2193.14,1890.44Z"/>
    <path id="Rounded_Rectangle_1_copy_4" data-name="Rounded Rectangle 1 copy 4" class="cls-2" d="M2234.27,3713.33l1122.96-693.8,124.57,201.62-1122.96,693.8Z"/>
    <path id="Rounded_Rectangle_1_copy_4-2" data-name="Rounded Rectangle 1 copy 4" class="cls-2" d="M2444.34,3882.11L3567.3,3188.3l74.63,120.81L2604.05,3950.35a99.988,99.988,0,0,1-137.63-32.51Z"/>
    <path id="Rounded_Rectangle_1_copy_4-3" data-name="Rounded Rectangle 1 copy 4" class="cls-2" d="M2169.14,3558.44L3269.98,2878.3l74.63,120.81L2158.7,3731.81l-22.07-35.73A100,100,0,0,1,2169.14,3558.44Z"/>
    <path id="Rounded_Rectangle_1_copy_5" data-name="Rounded Rectangle 1 copy 5" class="cls-2" d="M2210.27,5614.33l1122.96-693.8,124.57,201.62-1122.96,693.8Z"/>
    <path id="Rounded_Rectangle_1_copy_5-2" data-name="Rounded Rectangle 1 copy 5" class="cls-2" d="M2420.34,5783.11L3543.3,5089.3l74.63,120.81L2580.05,5851.35a99.988,99.988,0,0,1-137.63-32.51Z"/>
    <path id="Rounded_Rectangle_1_copy_5-3" data-name="Rounded Rectangle 1 copy 5" class="cls-2" d="M2145.14,5459.44L3245.98,4779.3l74.63,120.81L2134.7,5632.81l-22.07-35.73A100,100,0,0,1,2145.14,5459.44Z"/>
    <path id="Rounded_Rectangle_1_copy_6" data-name="Rounded Rectangle 1 copy 6" class="cls-2" d="M2085.27,7202.33l1122.96-693.8,124.57,201.62-1122.96,693.8Z"/>
    <path id="Rounded_Rectangle_1_copy_6-2" data-name="Rounded Rectangle 1 copy 6" class="cls-2" d="M2295.34,7371.11L3418.3,6677.3l74.63,120.81L2455.05,7439.35a99.988,99.988,0,0,1-137.63-32.51Z"/>
    <path id="Rounded_Rectangle_1_copy_6-3" data-name="Rounded Rectangle 1 copy 6" class="cls-2" d="M2020.14,7047.44L3120.98,6367.3l74.63,120.81L2009.7,7220.81l-22.07-35.73A100,100,0,0,1,2020.14,7047.44Z"/>
    <path id="Rounded_Rectangle_1_copy_7" data-name="Rounded Rectangle 1 copy 7" class="cls-2" d="M2420.27,8790.33l1122.96-693.8,124.57,201.62-1122.96,693.8Z"/>
    <path id="Rounded_Rectangle_1_copy_7-2" data-name="Rounded Rectangle 1 copy 7" class="cls-2" d="M2630.34,8959.11L3753.3,8265.3l74.63,120.81L2790.05,9027.35a99.988,99.988,0,0,1-137.63-32.51Z"/>
    <path id="Rounded_Rectangle_1_copy_7-3" data-name="Rounded Rectangle 1 copy 7" class="cls-2" d="M2355.14,8635.44L3455.98,7955.3l74.63,120.81L2344.7,8808.81l-22.07-35.73A100,100,0,0,1,2355.14,8635.44Z"/>
    <path id="Rounded_Rectangle_1_copy_8" data-name="Rounded Rectangle 1 copy 8" class="cls-2" d="M2420.27,10458.3l1122.96-693.77,124.57,201.62L2544.84,10660Z"/>
    <path id="Rounded_Rectangle_1_copy_8-2" data-name="Rounded Rectangle 1 copy 8" class="cls-2" d="M2630.34,10627.1L3753.3,9933.3l74.63,120.8-1037.88,641.3a100.031,100.031,0,0,1-137.63-32.6Z"/>
    <path id="Rounded_Rectangle_1_copy_8-3" data-name="Rounded Rectangle 1 copy 8" class="cls-2" d="M2355.14,10303.4l1100.84-680.1,74.63,120.81L2344.7,10476.8l-22.07-35.7A100.083,100.083,0,0,1,2355.14,10303.4Z"/>
    <path id="Rounded_Rectangle_1_copy_9" data-name="Rounded Rectangle 1 copy 9" class="cls-2" d="M2073.27,12359.3l1122.96-693.8,124.57,201.6L2197.84,12561Z"/>
    <path id="Rounded_Rectangle_1_copy_9-2" data-name="Rounded Rectangle 1 copy 9" class="cls-2" d="M2283.34,12528.1l1122.96-693.8,74.63,120.8-1037.88,641.3a100.031,100.031,0,0,1-137.63-32.6Z"/>
    <path id="Rounded_Rectangle_1_copy_9-3" data-name="Rounded Rectangle 1 copy 9" class="cls-2" d="M2008.14,12204.4l1100.84-680.1,74.63,120.8L1997.7,12377.8l-22.07-35.7A100.083,100.083,0,0,1,2008.14,12204.4Z"/>
    <path id="Rounded_Rectangle_1_copy_10" data-name="Rounded Rectangle 1 copy 10" class="cls-2" d="M2260.27,14180.3l1122.96-693.8,124.57,201.6L2384.84,14382Z"/>
    <path id="Rounded_Rectangle_1_copy_10-2" data-name="Rounded Rectangle 1 copy 10" class="cls-2" d="M2470.34,14349.1l1122.96-693.8,74.63,120.8-1037.88,641.3a100.031,100.031,0,0,1-137.63-32.6Z"/>
    <path id="Rounded_Rectangle_1_copy_10-3" data-name="Rounded Rectangle 1 copy 10" class="cls-2" d="M2195.14,14025.4l1100.84-680.1,74.63,120.8L2184.7,14198.8l-22.07-35.7A100.083,100.083,0,0,1,2195.14,14025.4Z"/>
    <path id="Rounded_Rectangle_1_copy_11" data-name="Rounded Rectangle 1 copy 11" class="cls-2" d="M702.4,14297.2L-411.183,15006l-127.253-200,1113.582-708.7Z"/>
    <path id="Rounded_Rectangle_1_copy_11-2" data-name="Rounded Rectangle 1 copy 11" class="cls-2" d="M490.092,14131.3L-623.49,14840l-76.245-119.8,1029.219-655a99.935,99.935,0,0,1,138.056,30.6Z"/>
    <path id="Rounded_Rectangle_1_copy_11-3" data-name="Rounded Rectangle 1 copy 11" class="cls-2" d="M769.6,14451.2L-322.051,15146l-76.245-119.8,1176.01-748.5,22.551,35.5A99.921,99.921,0,0,1,769.6,14451.2Z"/>
    <path id="Rounded_Rectangle_1_copy_12" data-name="Rounded Rectangle 1 copy 12" class="cls-2" d="M702.4,13036.2L-411.183,13745l-127.253-200,1113.582-708.7Z"/>
    <path id="Rounded_Rectangle_1_copy_12-2" data-name="Rounded Rectangle 1 copy 12" class="cls-2" d="M490.092,12870.3L-623.49,13579l-76.245-119.8,1029.219-655a99.935,99.935,0,0,1,138.056,30.6Z"/>
    <path id="Rounded_Rectangle_1_copy_12-3" data-name="Rounded Rectangle 1 copy 12" class="cls-2" d="M769.6,13190.2L-322.051,13885l-76.245-119.8,1176.01-748.5,22.551,35.5A99.921,99.921,0,0,1,769.6,13190.2Z"/>
    <path id="Rounded_Rectangle_1_copy_13" data-name="Rounded Rectangle 1 copy 13" class="cls-2" d="M644.4,11374.2L-469.183,12083l-127.253-200,1113.582-708.7Z"/>
    <path id="Rounded_Rectangle_1_copy_13-2" data-name="Rounded Rectangle 1 copy 13" class="cls-2" d="M432.092,11208.3L-681.49,11917l-76.245-119.8,1029.219-655a99.935,99.935,0,0,1,138.056,30.6Z"/>
    <path id="Rounded_Rectangle_1_copy_13-3" data-name="Rounded Rectangle 1 copy 13" class="cls-2" d="M711.6,11528.2L-380.051,12223l-76.245-119.8,1176.01-748.5,22.551,35.5A99.921,99.921,0,0,1,711.6,11528.2Z"/>
    <path id="Rounded_Rectangle_1_copy_14" data-name="Rounded Rectangle 1 copy 14" class="cls-2" d="M644.4,9712.23L-469.183,10421l-127.253-200L517.146,9512.29Z"/>
    <path id="Rounded_Rectangle_1_copy_14-2" data-name="Rounded Rectangle 1 copy 14" class="cls-2" d="M432.092,9546.27L-681.49,10255l-76.245-119.8L271.484,9480.17a100.006,100.006,0,0,1,138.056,30.67Z"/>
    <path id="Rounded_Rectangle_1_copy_14-3" data-name="Rounded Rectangle 1 copy 14" class="cls-2" d="M711.6,9866.23L-380.051,10561l-76.245-119.8,1176.01-748.46,22.551,35.44A99.992,99.992,0,0,1,711.6,9866.23Z"/>
    <path id="Rounded_Rectangle_1_copy_15" data-name="Rounded Rectangle 1 copy 15" class="cls-2" d="M481.4,7965.23L-632.183,8673.99l-127.253-199.94L354.146,7765.29Z"/>
    <path id="Rounded_Rectangle_1_copy_15-2" data-name="Rounded Rectangle 1 copy 15" class="cls-2" d="M269.092,7799.27L-844.49,8508.03l-76.245-119.8L108.484,7733.17a100.006,100.006,0,0,1,138.056,30.67Z"/>
    <path id="Rounded_Rectangle_1_copy_15-3" data-name="Rounded Rectangle 1 copy 15" class="cls-2" d="M548.6,8119.23l-1091.648,694.8-76.245-119.8,1176.01-748.49,22.551,35.44A99.992,99.992,0,0,1,548.6,8119.23Z"/>
    <path id="Rounded_Rectangle_1_copy_16" data-name="Rounded Rectangle 1 copy 16" class="cls-2" d="M853.4,6255.23L-260.183,6963.99l-127.253-199.94L726.146,6055.29Z"/>
    <path id="Rounded_Rectangle_1_copy_16-2" data-name="Rounded Rectangle 1 copy 16" class="cls-2" d="M641.092,6089.27L-472.49,6798.03l-76.245-119.8L480.484,6023.17a100.006,100.006,0,0,1,138.056,30.67Z"/>
    <path id="Rounded_Rectangle_1_copy_16-3" data-name="Rounded Rectangle 1 copy 16" class="cls-2" d="M920.6,6409.23l-1091.648,694.8-76.245-119.8,1176.01-748.49,22.551,35.44A99.992,99.992,0,0,1,920.6,6409.23Z"/>
    <path id="Rounded_Rectangle_1_copy_17" data-name="Rounded Rectangle 1 copy 17" class="cls-2" d="M782.4,4620.23L-331.183,5328.99l-127.253-199.94L655.146,4420.29Z"/>
    <path id="Rounded_Rectangle_1_copy_17-2" data-name="Rounded Rectangle 1 copy 17" class="cls-2" d="M570.092,4454.27L-543.49,5163.03l-76.245-119.8L409.484,4388.17a100.006,100.006,0,0,1,138.056,30.67Z"/>
    <path id="Rounded_Rectangle_1_copy_17-3" data-name="Rounded Rectangle 1 copy 17" class="cls-2" d="M849.6,4774.23l-1091.648,694.8-76.245-119.8,1176.01-748.49,22.551,35.44A99.992,99.992,0,0,1,849.6,4774.23Z"/>
    <path id="Rounded_Rectangle_1_copy_18" data-name="Rounded Rectangle 1 copy 18" class="cls-2" d="M690.4,2958.23L-423.183,3666.99l-127.253-199.94L563.146,2758.29Z"/>
    <path id="Rounded_Rectangle_1_copy_18-2" data-name="Rounded Rectangle 1 copy 18" class="cls-2" d="M478.092,2792.27L-635.49,3501.03l-76.245-119.8L317.484,2726.17a100.006,100.006,0,0,1,138.056,30.67Z"/>
    <path id="Rounded_Rectangle_1_copy_18-3" data-name="Rounded Rectangle 1 copy 18" class="cls-2" d="M757.6,3112.23l-1091.648,694.8-76.245-119.8,1176.01-748.49,22.551,35.44A99.992,99.992,0,0,1,757.6,3112.23Z"/>
    <path id="Rounded_Rectangle_1_copy_19" data-name="Rounded Rectangle 1 copy 19" class="cls-2" d="M589.4,1336.23L-524.183,2044.99l-127.253-199.94L462.146,1136.29Z"/>
    <path id="Rounded_Rectangle_1_copy_19-2" data-name="Rounded Rectangle 1 copy 19" class="cls-2" d="M377.092,1170.27L-736.49,1879.03l-76.245-119.8L216.484,1104.17a100.006,100.006,0,0,1,138.056,30.67Z"/>
    <path id="Rounded_Rectangle_1_copy_19-3" data-name="Rounded Rectangle 1 copy 19" class="cls-2" d="M656.6,1490.23l-1091.648,694.8-76.245-119.8,1176.01-748.49,22.551,35.44A99.992,99.992,0,0,1,656.6,1490.23Z"/>
    <path id="Rounded_Rectangle_1_copy_20" data-name="Rounded Rectangle 1 copy 20" class="cls-2" d="M318.4,330.23L-795.183,1038.99-922.436,839.047,191.146,130.291Z"/>
    <path id="Rounded_Rectangle_1_copy_20-2" data-name="Rounded Rectangle 1 copy 20" class="cls-2" d="M106.092,164.274L-1007.49,873.029l-76.25-119.794L-54.515,98.173A100,100,0,0,1,83.54,128.841Z"/>
    <path id="Rounded_Rectangle_1_copy_20-3" data-name="Rounded Rectangle 1 copy 20" class="cls-2" d="M385.6,484.231l-1091.648,694.8-76.245-119.8L393.714,310.743l22.551,35.432A100,100,0,0,1,385.6,484.231Z"/>
  </g>
</svg>
